<?xml version="1.0" encoding="utf-8"?>
<svg xmlns="http://www.w3.org/2000/svg" viewBox="0 0 268 97.7">
  <defs>
    <linearGradient id="brand" x1="0" y1="0" x2="0.3" y2="1">
      <stop offset="0" stop-color="#C4B5FD"/>
      <stop offset="0.55" stop-color="#8B5CF6"/>
      <stop offset="1" stop-color="#7C3AED"/>
    </linearGradient>
  </defs>
  <g>
	<g>
		<g>
			<path fill="url(#brand)" d="M80.4,26.1L52.1,11c-1.8-0.9-3.8-0.9-5.6,0L18.2,26.1c-1.9,1-3.1,3-3.1,5.2v35.5c0,2.2,1.2,4.2,3.1,5.2
				l28.3,15.2c0.9,0.5,1.8,0.7,2.8,0.7c1,0,1.9-0.2,2.8-0.7L80.4,72c1.9-1,3.1-3,3.1-5.2V31.4C83.5,29.2,82.3,27.2,80.4,26.1z
				 M48,85c-0.1,0-0.2-0.1-0.3-0.1l-3.5-1.9c0.7-0.8,1.4-2.2,1.4-4.3V68.3c0-0.5,0.1-2.9-1.7-5.9l0,0c0,0,0,0-0.1-0.1
				c-0.3-0.6-0.7-1.2-1.2-1.8c-2.9-3.7-3.1-5.3-3.1-6.9c0-2.1-0.4-4.1-4-6.1c0-0.1,0-0.3,0-0.4c0-1.8-1.4-3.2-3.2-3.2
				c-1.8,0-3.2,1.4-3.2,3.2c0,1.8,1.4,3.2,3.2,3.2c0.7,0,1.3-0.2,1.8-0.6c2.8,1.5,2.8,2.7,2.8,3.9c0,1.3,0.2,2.6,0.8,4
				c-0.6-0.2-1.2-0.3-1.9-0.4c-2.2-0.2-2.7-1-3.3-2c-0.4-0.6-0.8-1.3-1.5-1.8c-0.7-0.4-1.7-0.9-2.5-1.3c0-0.1,0-0.1,0-0.2
				c0-1.8-1.4-3.2-3.2-3.2c-1.8,0-3.2,1.4-3.2,3.2s1.4,3.2,3.2,3.2c0.8,0,1.5-0.3,2-0.7c0.8,0.4,1.6,0.8,2.3,1.2
				c0.2,0.1,0.4,0.4,0.6,0.9c0.7,1.2,1.7,2.9,5.3,3.2c3.3,0.3,5.7,3.5,6.1,4c1.4,2.5,1.3,4.3,1.3,4.4l0,10.6c0,2-0.8,2.7-1.3,3
				l-22.4-12c-1.1-0.6-1.8-1.7-1.8-3V31.4c0-0.1,0-0.2,0-0.3l28,14.2c0,0,0,0,0,0l0.2,0.1c1.3,0.7,2.1,2,2.1,3.5V85z M46.9,42.9
				l-28-14.2c0.2-0.1,0.3-0.3,0.5-0.4l28.3-15.2c0.5-0.3,1-0.4,1.6-0.4c0.5,0,1.1,0.1,1.6,0.4l28.3,15.2c0.2,0.1,0.4,0.2,0.5,0.4
				l-28,14.2C50.2,43.7,48.4,43.7,46.9,42.9z M80.9,66.8c0,1.2-0.7,2.4-1.8,3l-22.4,12c-0.4-0.3-1.3-1.1-1.3-3V68.3l0-0.1
				c0-0.1-0.1-1.9,1.3-4.4c0.4-0.5,2.8-3.7,6.1-4c3.6-0.3,4.6-2.1,5.3-3.2c0.2-0.4,0.4-0.7,0.6-0.9c0.7-0.4,1.6-0.9,2.3-1.2
				c0.6,0.5,1.3,0.7,2,0.7c1.8,0,3.2-1.4,3.2-3.2s-1.4-3.2-3.2-3.2c-1.8,0-3.2,1.4-3.2,3.2c0,0.1,0,0.1,0,0.2
				c-0.8,0.4-1.7,0.9-2.5,1.3c-0.8,0.5-1.2,1.2-1.5,1.8c-0.6,1-1.1,1.8-3.3,2c-0.7,0.1-1.3,0.2-1.9,0.4c0.6-1.5,0.8-2.7,0.8-4
				c0-1.3,0-2.5,2.8-3.9c0.5,0.4,1.2,0.6,1.8,0.6c1.8,0,3.2-1.4,3.2-3.2c0-1.8-1.4-3.2-3.2-3.2c-1.8,0-3.2,1.4-3.2,3.2
				c0,0.2,0,0.3,0,0.4c-3.7,2-4,4-4,6.1c0,1.6-0.2,3.3-3.1,6.9c-0.5,0.6-0.9,1.2-1.2,1.8c0,0.1-0.1,0.1-0.1,0.1l0,0
				c-1.7,3-1.7,5.5-1.7,5.9v10.4c0,2.1,0.7,3.5,1.4,4.3l-3.5,1.9C50.8,85,50.7,85,50.6,85l0-36.3c0-1.5,0.8-2.8,2.1-3.5l0.2-0.1
				c0,0,0,0,0,0l28-14.2c0,0.1,0,0.2,0,0.3V66.8z"/>
			<path fill="url(#brand)" d="M54.6,47.8c-1.8,0-1.7,2.7-1.7,2.7v11.3c0.5-1,1.1-2.1,2-3.2c0.4-0.4,0.6-0.9,0.6-1.5v-8.1
				C55.5,48.5,55.3,47.8,54.6,47.8z"/>
			<path fill="url(#brand)" d="M43.9,47.8c-0.7,0-0.8,0.7-0.8,1.3v8.1c0,0.5,0.2,1.1,0.6,1.5c0.9,1,1.6,2.1,2,3.2V50.5
				C45.7,50.5,45.7,47.8,43.9,47.8z"/>
		</g>
	</g>
	<path fill="url(#brand)" d="M51.9,36.4L51.9,36.4c0.3-0.3,0.6-0.6,0.9-1c2.1-2.8,4.6-4,5.8-4.5c0,0,0,0,0.1,0c0.5,0.3,1,0.5,1.7,0.5
		c1.8,0,3.2-1.4,3.2-3.2S62.2,25,60.4,25s-3.2,1.4-3.2,3.2c0,0.3,0,0.5,0.1,0.8c-4.7,2-5.4,4.4-5.9,6.2c-0.2,0.6-0.4,1-0.7,1.2V25
		c1.1-0.5,1.9-1.6,1.9-2.9c0-1.8-1.4-3.2-3.2-3.2s-3.2,1.4-3.2,3.2c0,1.3,0.8,2.4,1.9,2.9v11.3c-0.3-0.2-0.6-0.6-0.7-1.2
		c-0.4-1.8-1.2-4.1-5.9-6.2c0.1-0.2,0.1-0.5,0.1-0.8c0-1.8-1.4-3.2-3.2-3.2c-1.8,0-3.2,1.4-3.2,3.2s1.4,3.2,3.2,3.2
		c0.6,0,1.2-0.2,1.7-0.5c0,0,0,0,0.1,0c1.2,0.6,3.6,1.8,5.8,4.5c0.3,0.4,0.6,0.7,0.9,1l0,0c0,0,1.8,1.8,4.2,0.6
		C51.3,36.9,51.6,36.7,51.9,36.4L51.9,36.4z"/>
</g>
  <text x="99" y="62" font-family="Helvetica Neue, Helvetica, Arial, sans-serif" font-size="46" font-weight="700" letter-spacing="-2.5" fill="#FFFFFF">Obscura</text>
</svg>